<mxfile host="app.diagrams.net" modified="2023-09-23T12:41:34.684Z" agent="Mozilla/5.0 (Windows NT 10.0; Win64; x64) AppleWebKit/537.36 (KHTML, like Gecko) Chrome/116.0.0.0 Safari/537.36" version="21.3.5" etag="JbbqLK971x60c9CdP6Tg" type="github">
  <diagram name="Page-1" id="0EarZugzBQ0VybmNHEMa">
    <mxGraphModel>
      <root>
        <mxCell id="0" />
        <mxCell id="1" parent="0" />
      </root>
    </mxGraphModel>
  </diagram>
</mxfile>
